<svg width="20" height="20" viewBox="0 0 20 20" fill="none" xmlns="http://www.w3.org/2000/svg">
<path d="M9.68731 9.68741H10.3123M9.68731 10.3124H10.3123M3.85397 9.68741H4.47897M3.85397 10.3124H4.47897M15.5206 9.68741H16.1456M15.5206 10.3124H16.1456M10.8333 9.99996C10.8333 10.4602 10.4602 10.8333 10 10.8333C9.53977 10.8333 9.16668 10.4602 9.16668 9.99996C9.16668 9.53972 9.53977 9.16663 10 9.16663C10.4602 9.16663 10.8333 9.53972 10.8333 9.99996ZM5.00001 9.99996C5.00001 10.4602 4.62691 10.8333 4.16668 10.8333C3.70644 10.8333 3.33334 10.4602 3.33334 9.99996C3.33334 9.53972 3.70644 9.16663 4.16668 9.16663C4.62691 9.16663 5.00001 9.53972 5.00001 9.99996ZM16.6667 9.99996C16.6667 10.4602 16.2936 10.8333 15.8333 10.8333C15.3731 10.8333 15 10.4602 15 9.99996C15 9.53972 15.3731 9.16663 15.8333 9.16663C16.2936 9.16663 16.6667 9.53972 16.6667 9.99996Z" stroke="#F9F9F9" stroke-width="1.67" stroke-linecap="round"/>
</svg>
