<svg width="25" height="28" viewBox="0 0 25 28" fill="none" xmlns="http://www.w3.org/2000/svg">
<g filter="url(#filter0_d_2_23563)">
<path d="M22.1841 20.7033C21.8212 21.5418 21.3916 22.3136 20.8938 23.0232C20.2153 23.9906 19.6598 24.6602 19.2316 25.032C18.568 25.6424 17.8569 25.955 17.0954 25.9728C16.5488 25.9728 15.8895 25.8172 15.1221 25.5017C14.3522 25.1876 13.6447 25.032 12.9978 25.032C12.3193 25.032 11.5916 25.1876 10.8132 25.5017C10.0337 25.8172 9.40573 25.9816 8.9256 25.9979C8.1954 26.0291 7.46757 25.7076 6.74107 25.032C6.27739 24.6276 5.6974 23.9343 5.00261 22.9521C4.25715 21.9033 3.64429 20.687 3.16415 19.3004C2.64995 17.8026 2.39218 16.3523 2.39218 14.9482C2.39218 13.3398 2.73972 11.9526 3.43585 10.7901C3.98294 9.85636 4.71077 9.11979 5.6217 8.57906C6.53264 8.03834 7.5169 7.76279 8.57687 7.74516C9.15685 7.74516 9.91742 7.92456 10.8626 8.27715C11.8051 8.63091 12.4102 8.81031 12.6756 8.81031C12.8739 8.81031 13.5462 8.60054 14.6859 8.18233C15.7636 7.79449 16.6732 7.63391 17.4184 7.69716C19.4376 7.86012 20.9545 8.6561 21.9634 10.0901C20.1575 11.1843 19.2642 12.7169 19.282 14.6829C19.2983 16.2142 19.8538 17.4886 20.9457 18.5004C21.4405 18.97 21.993 19.333 22.6078 19.5907C22.4745 19.9774 22.3338 20.3477 22.1841 20.7033V20.7033ZM17.5532 2.48014C17.5532 3.68041 17.1147 4.8011 16.2406 5.8384C15.1858 7.07155 13.91 7.78412 12.5265 7.67168C12.5089 7.52769 12.4987 7.37614 12.4987 7.21688C12.4987 6.06462 13.0003 4.83147 13.8911 3.82321C14.3358 3.3127 14.9014 2.88823 15.5873 2.54962C16.2717 2.21606 16.9191 2.03159 17.528 2C17.5458 2.16046 17.5532 2.32093 17.5532 2.48012V2.48014Z" fill="white"/>
</g>
<defs>
<filter id="filter0_d_2_23563" x="-1.5" y="0" width="28" height="28" filterUnits="userSpaceOnUse" color-interpolation-filters="sRGB">
<feFlood flood-opacity="0" result="BackgroundImageFix"/>
<feColorMatrix in="SourceAlpha" type="matrix" values="0 0 0 0 0 0 0 0 0 0 0 0 0 0 0 0 0 0 127 0" result="hardAlpha"/>
<feMorphology radius="2" operator="dilate" in="SourceAlpha" result="effect1_dropShadow_2_23563"/>
<feOffset/>
<feComposite in2="hardAlpha" operator="out"/>
<feColorMatrix type="matrix" values="0 0 0 0 1 0 0 0 0 1 0 0 0 0 1 0 0 0 0.01 0"/>
<feBlend mode="normal" in2="BackgroundImageFix" result="effect1_dropShadow_2_23563"/>
<feBlend mode="normal" in="SourceGraphic" in2="effect1_dropShadow_2_23563" result="shape"/>
</filter>
</defs>
</svg>
