<svg width="26" height="26" viewBox="0 0 26 26" fill="none" xmlns="http://www.w3.org/2000/svg">
<g filter="url(#filter0_d_38_587)">
<path d="M23.7826 13.2527C23.7826 12.505 23.7219 11.7532 23.5926 11.0176H13.2171V15.2535H19.1586C18.9121 16.6196 18.1199 17.8282 16.9598 18.5961V21.3446H20.5046C22.5862 19.4287 23.7826 16.5994 23.7826 13.2527Z" fill="white"/>
<path d="M13.2175 24.0001C16.1842 24.0001 18.6862 23.026 20.5091 21.3445L16.9643 18.5961C15.9781 19.267 14.7049 19.647 13.2215 19.647C10.3518 19.647 7.91857 17.7109 7.04553 15.1079H3.38762V17.9413C5.25497 21.6558 9.05839 24.0001 13.2175 24.0001V24.0001Z" fill="white"/>
<path d="M7.04142 15.1082C6.58065 13.7421 6.58065 12.2628 7.04142 10.8966V8.06323H3.38756C1.82739 11.1714 1.82739 14.8334 3.38756 17.9416L7.04142 15.1082V15.1082Z" fill="white"/>
<path d="M13.2175 6.35361C14.7858 6.32936 16.3015 6.91948 17.4373 8.0027L20.5778 4.86215C18.5892 2.9948 15.9498 1.96816 13.2175 2.0005C9.05843 2.0005 5.25501 4.34479 3.38766 8.06333L7.04152 10.8967C7.91053 8.28968 10.3478 6.35361 13.2175 6.35361V6.35361Z" fill="white"/>
</g>
<defs>
<filter id="filter0_d_38_587" x="0" y="-0.000244141" width="26" height="26.0002" filterUnits="userSpaceOnUse" color-interpolation-filters="sRGB">
<feFlood flood-opacity="0" result="BackgroundImageFix"/>
<feColorMatrix in="SourceAlpha" type="matrix" values="0 0 0 0 0 0 0 0 0 0 0 0 0 0 0 0 0 0 127 0" result="hardAlpha"/>
<feMorphology radius="2" operator="dilate" in="SourceAlpha" result="effect1_dropShadow_38_587"/>
<feOffset/>
<feComposite in2="hardAlpha" operator="out"/>
<feColorMatrix type="matrix" values="0 0 0 0 1 0 0 0 0 1 0 0 0 0 1 0 0 0 0.01 0"/>
<feBlend mode="normal" in2="BackgroundImageFix" result="effect1_dropShadow_38_587"/>
<feBlend mode="normal" in="SourceGraphic" in2="effect1_dropShadow_38_587" result="shape"/>
</filter>
</defs>
</svg>
