<svg width="20" height="20" viewBox="0 0 20 20" fill="none" xmlns="http://www.w3.org/2000/svg">
<path d="M9.68728 9.68744H10.3123M9.68728 10.3124H10.3123M3.85394 9.68744H4.47894M3.85394 10.3124H4.47894M15.5206 9.68744H16.1456M15.5206 10.3124H16.1456M10.8333 9.99999C10.8333 10.4602 10.4602 10.8333 9.99998 10.8333C9.53974 10.8333 9.16665 10.4602 9.16665 9.99999C9.16665 9.53975 9.53974 9.16666 9.99998 9.16666C10.4602 9.16666 10.8333 9.53975 10.8333 9.99999ZM4.99998 9.99999C4.99998 10.4602 4.62688 10.8333 4.16665 10.8333C3.70641 10.8333 3.33331 10.4602 3.33331 9.99999C3.33331 9.53975 3.70641 9.16666 4.16665 9.16666C4.62688 9.16666 4.99998 9.53975 4.99998 9.99999ZM16.6666 9.99999C16.6666 10.4602 16.2935 10.8333 15.8333 10.8333C15.3731 10.8333 15 10.4602 15 9.99999C15 9.53975 15.3731 9.16666 15.8333 9.16666C16.2935 9.16666 16.6666 9.53975 16.6666 9.99999Z" stroke="#F9F9F9" stroke-width="1.67" stroke-linecap="round"/>
</svg>
