<svg width="20" height="20" viewBox="0 0 20 20" fill="none" xmlns="http://www.w3.org/2000/svg">
<path d="M9.68731 9.68747H10.3123M9.68731 10.3125H10.3123M3.85397 9.68747H4.47897M3.85397 10.3125H4.47897M15.5206 9.68747H16.1456M15.5206 10.3125H16.1456M10.8333 10C10.8333 10.4603 10.4602 10.8334 10 10.8334C9.53977 10.8334 9.16668 10.4603 9.16668 10C9.16668 9.53978 9.53977 9.16669 10 9.16669C10.4602 9.16669 10.8333 9.53978 10.8333 10ZM5.00001 10C5.00001 10.4603 4.62691 10.8334 4.16668 10.8334C3.70644 10.8334 3.33334 10.4603 3.33334 10C3.33334 9.53978 3.70644 9.16669 4.16668 9.16669C4.62691 9.16669 5.00001 9.53978 5.00001 10ZM16.6667 10C16.6667 10.4603 16.2936 10.8334 15.8333 10.8334C15.3731 10.8334 15 10.4603 15 10C15 9.53978 15.3731 9.16669 15.8333 9.16669C16.2936 9.16669 16.6667 9.53978 16.6667 10Z" stroke="#F9F9F9" stroke-width="1.67" stroke-linecap="round"/>
</svg>
